<svg width="20" height="20" viewBox="0 0 20 20" fill="none" xmlns="http://www.w3.org/2000/svg">
<path d="M8.80284 0.380886C9.15548 0.132037 9.57682 -0.00106924 10.0085 5.72205e-06C10.4402 0.00108068 10.8609 0.136284 11.2123 0.386887C11.5685 0.646877 11.8386 1.00686 11.9867 1.42285L12.8813 4.16874C13.1108 4.857 13.4973 5.4825 14.0103 5.99583C14.5233 6.50917 15.1486 6.8963 15.837 7.12663L18.6207 8.0266C19.0322 8.17551 19.3867 8.44972 19.634 8.81059C19.8814 9.17146 20.0092 9.60081 19.9995 10.0381C19.9898 10.4754 19.843 10.8987 19.5798 11.2482C19.3167 11.5978 18.9504 11.856 18.5326 11.9864L15.781 12.8824C15.0919 13.1116 14.4656 13.4977 13.9516 14.0104C13.4376 14.523 13.0499 15.1481 12.8192 15.8363L11.9147 18.6122C11.769 19.0212 11.4995 19.3746 11.1435 19.6233C10.7875 19.872 10.3628 20.0037 9.9284 19.9999C9.49405 19.9962 9.07167 19.8572 8.72002 19.6024C8.36836 19.3476 8.10492 18.9896 7.96634 18.5782L7.0518 15.7783C6.82222 15.1086 6.4436 14.4997 5.94444 13.9974C5.44529 13.4951 4.83861 13.1125 4.17008 12.8784L1.38843 11.9844C0.97938 11.8386 0.625922 11.5691 0.377128 11.2133C0.128334 10.8575 -0.00345142 10.4332 6.87264e-05 9.99915C0.00358888 9.56512 0.142239 9.14296 0.396771 8.79128C0.651303 8.43959 1.00909 8.17582 1.42045 8.0366L4.17008 7.14663C4.86264 6.91695 5.49159 6.52804 6.00635 6.01118C6.5211 5.49432 6.90729 4.86394 7.13385 4.17074L8.03838 1.38885C8.18247 0.980863 8.45063 0.628877 8.80284 0.380886Z" fill="#9547A5"/>
</svg>
