<svg width="15" height="15" viewBox="0 0 15 15" fill="none" xmlns="http://www.w3.org/2000/svg">
<path d="M1.36098 9.71698C1.15308 9.49583 1.0191 9.21551 0.977613 8.91485C0.936122 8.61419 0.989167 8.30806 1.1294 8.03887C1.2757 7.76541 1.5001 7.54206 1.77546 7.39822L3.60122 6.50652C4.05832 6.27931 4.45634 5.94895 4.76383 5.54153C5.07132 5.13412 5.27987 4.66081 5.37301 4.15898L5.72771 2.13278C5.7912 1.83166 5.94758 1.55804 6.17483 1.35048C6.40207 1.14292 6.68872 1.01188 6.99439 0.97583C7.30006 0.939776 7.60933 1.00052 7.87863 1.14951C8.14793 1.29851 8.36368 1.52823 8.49548 1.80631L9.38902 3.63435C9.6161 4.09166 9.94645 4.48988 10.354 4.79756C10.7615 5.10524 11.235 5.31394 11.737 5.40716L13.7597 5.76509C14.059 5.82645 14.3316 5.97952 14.5397 6.20302C14.7479 6.42652 14.8811 6.70933 14.921 7.01211C14.9609 7.31488 14.9055 7.62256 14.7623 7.89235C14.6192 8.16213 14.3955 8.38061 14.1224 8.51738L12.261 9.4283C11.8168 9.65372 11.4295 9.97696 11.1284 10.3737C10.8272 10.7704 10.62 11.2302 10.5223 11.7186L10.1716 13.7428C10.11 14.0419 9.9568 14.3144 9.73325 14.5224C9.5097 14.7305 9.22692 14.8638 8.92415 14.9039C8.62139 14.9439 8.31367 14.8887 8.04371 14.7459C7.77376 14.6032 7.55496 14.3799 7.4177 14.1071L6.52854 12.2799C6.30074 11.8202 5.96821 11.4204 5.5577 11.1126C5.14719 10.8049 4.67017 10.5977 4.16499 10.5079L2.13811 10.1505C1.83973 10.0901 1.56824 9.93792 1.36098 9.71698Z" fill="#358BB9"/>
</svg>
